<svg width="40" height="40" viewBox="0 0 40 40" fill="none" xmlns="http://www.w3.org/2000/svg">
<path d="M9.75004 28.5C11.1667 27.4167 12.75 26.5625 14.5 25.9375C16.25 25.3125 18.0834 25 20 25C21.9167 25 23.75 25.3125 25.5 25.9375C27.25 26.5625 28.8334 27.4167 30.25 28.5C31.2223 27.3612 31.9792 26.0695 32.5209 24.625C33.0625 23.1806 33.3334 21.6389 33.3334 20C33.3334 16.3056 32.0348 13.1598 29.4375 10.5625C26.8403 7.96532 23.6945 6.66671 20 6.66671C16.3056 6.66671 13.1598 7.96532 10.5625 10.5625C7.96532 13.1598 6.66671 16.3056 6.66671 20C6.66671 21.6389 6.93754 23.1806 7.47921 24.625C8.02087 26.0695 8.77782 27.3612 9.75004 28.5ZM20 21.6667C18.3612 21.6667 16.9792 21.1042 15.8542 19.9792C14.7292 18.8542 14.1667 17.4723 14.1667 15.8334C14.1667 14.1945 14.7292 12.8125 15.8542 11.6875C16.9792 10.5625 18.3612 10 20 10C21.6389 10 23.0209 10.5625 24.1459 11.6875C25.2709 12.8125 25.8334 14.1945 25.8334 15.8334C25.8334 17.4723 25.2709 18.8542 24.1459 19.9792C23.0209 21.1042 21.6389 21.6667 20 21.6667ZM20 36.6667C17.6945 36.6667 15.5278 36.2292 13.5 35.3542C11.4723 34.4792 9.70837 33.2917 8.20837 31.7917C6.70837 30.2917 5.52087 28.5278 4.64587 26.5C3.77087 24.4723 3.33337 22.3056 3.33337 20C3.33337 17.6945 3.77087 15.5278 4.64587 13.5C5.52087 11.4723 6.70837 9.70837 8.20837 8.20837C9.70837 6.70837 11.4723 5.52087 13.5 4.64587C15.5278 3.77087 17.6945 3.33337 20 3.33337C22.3056 3.33337 24.4723 3.77087 26.5 4.64587C28.5278 5.52087 30.2917 6.70837 31.7917 8.20837C33.2917 9.70837 34.4792 11.4723 35.3542 13.5C36.2292 15.5278 36.6667 17.6945 36.6667 20C36.6667 22.3056 36.2292 24.4723 35.3542 26.5C34.4792 28.5278 33.2917 30.2917 31.7917 31.7917C30.2917 33.2917 28.5278 34.4792 26.5 35.3542C24.4723 36.2292 22.3056 36.6667 20 36.6667Z" fill="#20686C"/>
</svg>
